<?xml version="1.0" standalone="no"?>
<!DOCTYPE svg PUBLIC "-//W3C//DTD SVG 20010904//EN"
 "http://www.w3.org/TR/2001/REC-SVG-20010904/DTD/svg10.dtd">
<svg version="1.0" xmlns="http://www.w3.org/2000/svg"
 width="44.000000pt" height="46.000000pt" viewBox="0 0 44.000000 46.000000"
 preserveAspectRatio="xMidYMid meet">

<g transform="translate(0.000000,46.000000) scale(0.100000,-0.100000)"
fill="#000000" stroke="none">
<path d="M137 303 c-4 -3 -7 -21 -7 -39 0 -18 -6 -35 -12 -37 -10 -4 -10 -8
-1 -14 6 -4 13 -24 15 -43 2 -27 8 -36 26 -38 22 -3 32 13 11 20 -6 2 -11 30
-11 68 0 38 5 66 11 68 6 2 11 8 11 13 0 10 -33 12 -43 2z"/>
<path d="M240 302 c0 -6 5 -12 11 -14 6 -2 11 -30 11 -68 0 -38 -5 -66 -11
-68 -21 -7 -11 -23 12 -20 17 2 23 11 25 38 2 19 9 38 15 42 9 6 9 10 0 16 -6
4 -13 23 -15 42 -2 27 -8 36 -25 38 -13 2 -23 -1 -23 -6z"/>
</g>
</svg>
